<svg xmlns="http://www.w3.org/2000/svg" viewBox="0 0 189.59 195.53"><g id="b7e72ddf-ec7b-4c6d-b49d-240e58951e9b" data-name="Ebene 2"><g id="bf70599a-9cd0-469c-9aa8-66da407918a0" data-name="Maße"><g id="b490fb0d-9aba-4804-9318-a1ede31f65c9" data-name="Bildmaterial 6"><path d="M55.73,125.66C79.59,103.08,71.67,90,95,90s24.64,20.36,32.59,30.54,43.59,32.77,29.59,57S114.3,186.11,95,186.43,51.6,208.7,33.78,183.25,55.73,125.66,55.73,125.66Z" style="fill:#db654b"/><path d="M17.76,134.63c19.64,2.06,34.53-17.35,28-36a47,47,0,0,0-13-19.45C18.25,66.38,4.21,56.92.24,104.38-1.62,126.63,7.52,133.55,17.76,134.63Z" style="fill:#db654b"/><path d="M168.12,132.31c-19.91-.38-32.39-21.66-23.52-39.49A47.41,47.41,0,0,1,160,75c16.12-11,31.35-18.73,29.4,29.25C188.51,126.72,178.5,132.51,168.12,132.31Z" style="fill:#db654b"/><path d="M72.17,84.18c15.72-3.33,22.6-28.78,11.76-48S76,0,62.33,0C44.06,0,35,32.19,38.75,56S62,86.35,72.17,84.18Z" style="fill:#db654b"/><path d="M114.37,84.18c-15.72-3.33-22.6-28.78-11.76-48S110.59,0,124.21,0c18.27,0,27.29,32.19,23.58,56S124.58,86.35,114.37,84.18Z" style="fill:#db654b"/></g></g></g></svg>